<?xml version="1.0" standalone="no"?>
<!DOCTYPE svg PUBLIC "-//W3C//DTD SVG 20010904//EN"
 "http://www.w3.org/TR/2001/REC-SVG-20010904/DTD/svg10.dtd">
<svg version="1.0" xmlns="http://www.w3.org/2000/svg"
 viewBox="0 0 1920 1080"
 preserveAspectRatio="xMidYMid meet">
<g transform="translate(0.000000,1080.000000) scale(0.100000,-0.100000)">
<path fill="#0000ff" fill-opacity="0.25" stroke="#256AFF" stroke-width="25%" d="M3870 10410 c-63 -3 -121 -9 -127 -13 -7 -5 -41 -13 -75 -18 -66 -10
-114 -26 -265 -90 -50 -22 -94 -39 -97 -39 -3 0 -31 -18 -62 -40 -32 -22 -62
-40 -67 -40 -5 0 -29 -17 -53 -37 -23 -21 -62 -54 -85 -73 -121 -99 -297 -317
-372 -460 -10 -19 -29 -64 -43 -100 -14 -36 -36 -90 -50 -121 -13 -31 -24 -66
-24 -77 0 -11 -5 -33 -11 -49 -14 -36 -37 -214 -48 -373 -16 -225 28 -654 80
-780 10 -25 21 -56 24 -70 9 -37 37 -96 113 -245 39 -74 105 -158 209 -266
103 -107 105 -126 25 -249 -31 -47 -102 -235 -112 -295 -6 -33 -16 -78 -22
-100 -8 -29 -13 -302 -15 -964 l-4 -923 -30 -52 c-17 -28 -50 -82 -74 -121
-24 -38 -60 -97 -80 -130 -20 -33 -56 -91 -80 -130 -49 -79 -112 -183 -135
-223 -9 -15 -27 -45 -41 -67 -85 -132 -151 -292 -169 -405 -6 -40 -10 -372
-10 -868 0 -904 5 -850 -75 -897 -63 -37 -205 -161 -263 -230 -76 -92 -212
-325 -212 -365 0 -6 -7 -25 -16 -43 -9 -17 -27 -83 -40 -147 -22 -108 -23
-138 -24 -481 0 -271 3 -368 12 -377 9 -9 296 -12 1230 -12 1193 0 1218 0
1228 19 7 13 10 379 10 1114 0 939 2 1096 14 1106 18 15 46 2 76 -36 12 -16
126 -134 253 -263 442 -448 547 -559 547 -575 0 -9 -26 -60 -57 -113 -58 -99
-117 -247 -134 -337 -6 -27 -17 -84 -25 -125 -20 -96 -32 -719 -15 -762 l11
-28 768 0 768 0 26 27 c19 21 363 530 493 730 6 9 137 207 293 440 155 234
282 433 282 442 0 10 -30 47 -67 83 -96 91 -384 361 -543 507 -74 69 -285 274
-467 455 -263 261 -334 337 -338 361 -2 16 -7 750 -10 1630 -7 1730 -8 1782
-60 1940 -85 255 -221 449 -426 612 -70 55 -76 76 -38 146 71 129 111 222 130
302 5 22 16 58 24 80 34 95 66 598 46 735 -7 46 -16 127 -20 180 -4 56 -16
119 -28 151 -11 30 -31 88 -43 129 -24 80 -25 81 -70 165 -17 30 -44 80 -60
111 -52 95 -122 192 -204 283 -50 54 -256 215 -316 245 -30 16 -62 34 -70 40
-29 23 -188 96 -210 96 -12 0 -42 9 -68 20 -127 53 -345 74 -612 60z"/>
<path fill="#ff0000" fill-opacity="0.25" stroke="#ff0000" stroke-width="10%" d="M10793 9445 c-73 -8 -169 -21 -215 -30 -528 -107 -854 -428 -968
-951 -51 -239 -51 -205 -47 -3149 3 -2821 3 -2785 43 -2975 110 -518 411 -835
904 -954 228 -55 -2 -51 3115 -51 l2860 0 120 22 c333 61 527 154 716 342 188
189 281 383 342 716 l22 120 0 2860 c0 2698 -1 2865 -18 2955 -39 208 -67 300
-136 445 -175 366 -501 575 -1011 647 -131 18 -5544 21 -5727 3z m2472 -3067
c194 -33 378 -132 516 -275 194 -203 289 -465 289 -798 -1 -532 -266 -916
-721 -1044 -203 -57 -471 -45 -657 28 -223 88 -384 232 -505 451 -52 95 -103
261 -116 376 -7 55 -14 114 -16 133 -7 57 23 331 46 411 115 415 415 679 829
729 84 10 244 5 335 -11z m2375 -4 c171 -31 311 -103 411 -211 95 -103 152
-233 165 -375 7 -75 6 -77 -17 -82 -34 -8 -312 -26 -320 -21 -3 3 -9 32 -13
65 -5 40 -20 85 -44 133 -30 59 -47 79 -92 109 -85 57 -152 72 -310 72 -190 1
-285 -31 -357 -119 -54 -65 -66 -141 -34 -211 38 -84 116 -120 421 -195 369
-91 488 -135 608 -223 279 -206 296 -613 38 -872 -166 -166 -413 -238 -733
-215 -301 23 -506 121 -639 307 -85 119 -134 259 -134 385 0 75 4 79 73 79 23
0 88 5 145 12 121 14 115 17 130 -82 17 -117 73 -212 159 -271 98 -68 297
-118 418 -105 215 23 323 74 381 178 57 103 32 233 -56 297 -62 45 -151 76
-403 141 -270 69 -298 77 -392 115 -138 55 -246 141 -311 247 -38 63 -74 187
-74 257 1 118 53 262 130 360 157 198 498 288 850 225z m-4689 -16 c231 -67
394 -210 464 -408 23 -65 45 -212 34 -231 -8 -16 -59 -22 -298 -32 l-35 -2
-16 70 c-31 129 -70 196 -143 242 -132 83 -398 96 -554 27 -102 -45 -154 -115
-155 -208 -1 -67 25 -121 74 -157 56 -40 210 -89 473 -149 136 -32 313 -89
379 -122 154 -78 253 -183 311 -333 28 -70 29 -286 2 -360 -36 -99 -82 -170
-157 -246 -171 -172 -412 -244 -730 -220 -370 28 -614 183 -728 463 -49 121
-67 279 -34 296 16 9 179 24 271 26 l44 1 21 -95 c34 -146 74 -207 177 -273
70 -44 123 -62 239 -83 83 -15 108 -16 195 -5 189 24 294 78 347 180 50 95 32
212 -42 274 -71 60 -160 93 -460 167 -311 78 -434 127 -544 217 -69 56 -136
149 -161 224 -23 68 -31 218 -15 293 39 190 198 359 400 426 126 42 185 50
375 46 155 -3 192 -7 266 -28z m6373 -14 c13 -34 5 -475 -13 -735 -11 -151
-25 -353 -31 -449 -15 -250 -31 -394 -44 -402 -6 -4 -55 -8 -108 -8 -72 0
-100 4 -111 15 -11 10 -17 49 -21 132 -4 65 -11 172 -17 238 -5 66 -14 190
-19 275 -6 85 -15 214 -20 285 -11 149 -13 648 -3 658 3 4 91 7 194 7 161 0
188 -2 193 -16z m-10 -1730 c3 -9 6 -89 6 -179 0 -152 -1 -165 -19 -175 -21
-11 -318 -14 -345 -4 -14 5 -16 31 -16 183 0 98 3 181 7 184 3 4 86 7 184 7
152 0 178 -2 183 -16z m-6793 -1781 c31 -18 59 -67 59 -103 0 -29 -26 -76 -52
-94 -13 -10 -43 -16 -73 -16 -57 0 -88 17 -110 60 -19 37 -19 64 0 104 29 62
114 85 176 49z m675 1 c33 -22 54 -64 54 -110 0 -28 -8 -44 -34 -70 -30 -30
-40 -34 -89 -34 -48 0 -59 4 -85 30 -51 51 -47 127 9 174 36 31 105 35 145 10z
m689 -19 c30 -30 35 -42 35 -81 0 -39 -5 -51 -34 -80 -30 -30 -40 -34 -89 -34
-48 0 -59 4 -85 30 -51 51 -47 127 9 174 24 20 42 26 79 26 43 0 54 -5 85 -35z
m3634 10 c35 -30 55 -82 45 -119 -3 -15 -19 -40 -34 -56 -25 -27 -35 -30 -85
-30 -51 0 -60 3 -91 34 -52 52 -46 122 14 173 39 33 110 32 151 -2z m661 10
c68 -35 79 -135 20 -187 -25 -23 -40 -28 -84 -28 -63 0 -99 23 -116 75 -16 49
-4 89 36 125 40 34 95 40 144 15z m670 0 c68 -35 79 -135 20 -187 -25 -23 -40
-28 -84 -28 -63 0 -99 23 -116 75 -16 49 -4 89 36 125 40 34 95 40 144 15z
m-3742 -107 l-3 -33 -102 -3 c-102 -3 -102 -3 -109 22 -3 14 -3 30 1 35 4 7
48 11 111 11 l105 0 -3 -32z m620 0 l-3 -33 -105 0 -105 0 -3 33 -3 32 111 0
111 0 -3 -32z m620 0 l-3 -33 -105 0 -105 0 -3 33 -3 32 111 0 111 0 -3 -32z"/>
<path fill="#ff0000" fill-opacity="0.25" stroke="#ff0000" stroke-width="10%" d="M12875 6046 c-91 -29 -137 -54 -210 -110 -141 -110 -207 -252 -235
-508 -41 -367 85 -677 329 -807 102 -54 173 -71 301 -71 132 0 217 19 308 71
223 126 332 351 332 687 0 321 -98 538 -303 672 -98 65 -163 82 -317 86 -120
3 -143 1 -205 -20z"/>
</g>
</svg>
